<svg width="28" height="28" viewBox="0 0 28 28" fill="none" xmlns="http://www.w3.org/2000/svg">
<mask id="mask0_54_20" style="mask-type:alpha" maskUnits="userSpaceOnUse" x="5" y="5" width="18" height="18">
<path d="M21 15.1667H15.1667V21C15.1667 21.6417 14.6417 22.1667 14 22.1667C13.3583 22.1667 12.8333 21.6417 12.8333 21V15.1667H7.00001C6.35834 15.1667 5.83334 14.6417 5.83334 14C5.83334 13.3584 6.35834 12.8334 7.00001 12.8334H12.8333V7.00004C12.8333 6.35837 13.3583 5.83337 14 5.83337C14.6417 5.83337 15.1667 6.35837 15.1667 7.00004V12.8334H21C21.6417 12.8334 22.1667 13.3584 22.1667 14C22.1667 14.6417 21.6417 15.1667 21 15.1667Z" fill="black"/>
</mask>
<g mask="url(#mask0_54_20)">
<rect width="28" height="28" fill="white"/>
</g>
</svg>
